<?xml version="1.0" encoding="UTF-8"?> <svg xmlns="http://www.w3.org/2000/svg" xmlns:xlink="http://www.w3.org/1999/xlink" version="1.1" id="Layer_2_00000062913497455294814230000005771423060255546015_" x="0px" y="0px" viewBox="0 0 45.2 45.2" style="enable-background:new 0 0 45.2 45.2;" xml:space="preserve"> <style type="text/css"> .st0{fill:#F4F7F9;} </style> <g id="Layer_1-2"> <g> <path class="st0" d="M43.4,14c-1.1-2.7-2.8-5.2-4.9-7.3c-4.2-4.3-9.9-6.6-15.9-6.6h0c-6,0-11.7,2.3-15.9,6.6 c-4.3,4.2-6.6,9.9-6.6,15.9c0,6,2.3,11.7,6.6,15.9s9.9,6.6,15.9,6.6h0c6,0,11.7-2.3,15.9-6.6c2.1-2.1,3.7-4.6,4.9-7.3 c1.1-2.7,1.7-5.6,1.7-8.6C45.1,19.6,44.5,16.7,43.4,14L43.4,14z M36.5,36.5c-3.7,3.7-8.6,5.7-13.9,5.7s-10.2-2-13.9-5.7 S3,27.8,3,22.6S5,12.4,8.7,8.7S17.4,3,22.6,3c5.2,0,10.2,2,13.9,5.8c3.7,3.7,5.7,8.6,5.7,13.9C42.2,27.8,40.2,32.8,36.5,36.5 L36.5,36.5z"></path> <path class="st0" d="M21.2,8.5L21.2,8.5c0,0-0.5,0.1-0.8,0.2c-1.6,0.6-3,1.7-4,3.1c-1,1.5-1.6,3.2-1.6,5c0,1.2,0.2,2.3,0.7,3.4 l0.8,1.9l-1.1,1.1l0,3.9v0.1l2.3-2.3l0.3,0.8c0.3,0.7,0.5,1.5,0.5,2.2c0,2.4-1.5,4.2-2.9,5L15,33.1l0,3v0l0,0c0,0,0.3-0.1,0.8-0.3 c1.5-0.7,2.8-1.8,3.7-3.2c0.9-1.4,1.4-3,1.4-4.7c0-1.2-0.2-2.3-0.7-3.3l-0.8-1.9l1.1-1.1l0-3.9v-0.1l-2.3,2.3L18,19.1 c-0.3-0.7-0.5-1.5-0.5-2.3c0-2.4,1.6-4.5,3.2-5.2l0.4-0.1l0,0L21.2,8.5L21.2,8.5L21.2,8.5z"></path> <path class="st0" d="M30.1,11.6l0.4-0.1l0-2.9v0l0,0c-0.3,0.1-0.5,0.1-0.8,0.2c-1.6,0.6-3,1.7-4,3.1c-1,1.5-1.6,3.2-1.6,5 c0,1.2,0.2,2.3,0.7,3.4l2.3,5.5c0.3,0.7,0.4,1.5,0.4,2.2c0,2.5-1.4,4.4-2.8,5L24.3,33l0,0l0,3v0l0,0c0.4-0.1,0.8-0.3,0.8-0.3 c3.1-1.4,5.2-4.5,5.2-7.9c0-1.2-0.2-2.3-0.7-3.3l-2.3-5.5c-0.3-0.7-0.5-1.5-0.5-2.3C26.9,14.5,28.2,12.4,30.1,11.6L30.1,11.6z"></path> </g> </g> </svg> 