<?xml version="1.0" encoding="UTF-8"?>
<svg xmlns="http://www.w3.org/2000/svg" viewBox="0 0 45.2 45.2">
  <defs>
    <linearGradient id="orbit" x1="0" x2="0" y1="0" y2="1">
      <stop offset="0%" stop-color="#38bdf8" />
      <stop offset="100%" stop-color="#0ea5e9" />
    </linearGradient>
  </defs>
  <g fill="url(#orbit)">
    <path d="M43.4 14c-1.1-2.7-2.8-5.2-4.9-7.3C34.3 2.4 28.6 0 22.6 0S10.9 2.4 6.7 6.7C2.5 10.9.2 16.6.2 22.6s2.3 11.7 6.5 15.9c4.3 4.3 9.9 6.6 15.9 6.6s11.7-2.3 15.9-6.6c2.1-2.1 3.7-4.6 4.9-7.3 1.1-2.7 1.7-5.6 1.7-8.6 0-3-0.6-5.9-1.7-8.6Zm-6.9 22.5c-3.7 3.7-8.6 5.7-13.9 5.7s-10.2-2-13.9-5.7S3 27.8 3 22.6 5 12.4 8.7 8.7 17.4 3 22.6 3 32.8 5 36.5 8.8s5.7 8.6 5.7 13.9-2 10.2-5.7 13.9Z"/>
    <path d="M21.2 8.5s-.5.1-.8.2c-1.6.6-3 1.7-4 3.1-1 1.5-1.6 3.2-1.6 5 0 1.2.2 2.3.7 3.4l.8 1.9-1.1 1.1V27l2.3-2.3.3.8c.3.7.5 1.5.5 2.2 0 2.4-1.5 4.2-2.9 5l-.2.1v3s.3-.1.8-.3c1.5-.7 2.8-1.8 3.7-3.2.9-1.4 1.4-3 1.4-4.7 0-1.2-.2-2.3-.7-3.3l-.8-1.9 1.1-1.1V19l-2.3 2.3-.3-.8c-.3-.7-.5-1.5-.5-2.3 0-2.4 1.6-4.5 3.2-5.2l.4-.1V8.5Z"/>
    <path d="M30.1 11.6l.4-.1V8.6c-.3.1-.5.1-.8.2-1.6.6-3 1.7-4 3.1-1 1.5-1.6 3.2-1.6 5 0 1.2.2 2.3.7 3.4l2.3 5.5c.3.7.4 1.5.4 2.2 0 2.5-1.4 4.4-2.8 5l-.2.1v3s.4-.2.8-.3c3.1-1.4 5.2-4.5 5.2-7.9 0-1.2-.2-2.3-.7-3.3l-2.3-5.5c-.3-.7-.5-1.5-.5-2.3-.1-2.1 1.2-4.2 3.1-5Z"/>
  </g>
</svg>
